<svg viewBox="30 255 1620 959.9999999999999" fill="none" xmlns="http://www.w3.org/2000/svg" xmlns:xlink="http://www.w3.org/1999/xlink" xmlns:blush="http://design.blush" overflow="visible"><g id="Master/Spot Illustration/Fast Delivery" blush:has-customizable-colors="true" blush:viewBox="-54.000000000000114 258 1704.0000000000002 941.9999999999999" blush:i="0"><g id="Background" blush:i="0.0"><g id="speed" blush:i="0.0.0"><g id="bg" blush:i="0.0.0.0"><path id="Path" d="M376.5 676V676C352.21 675.77 329.43 675.43 307.41 675.11C245.319 674.19 186.67 673.32 116.82 675.37H116.72C114.787 675.4 113.195 673.858 113.165 671.925C113.134 669.992 114.677 668.4 116.61 668.37C186.61 666.37 245.34 667.19 307.51 668.11C329.51 668.43 352.289 668.77 376.509 669C378.442 669 380.009 670.567 380.009 672.5C380.009 674.433 378.442 676 376.509 676H376.5Z" fill="#D1D9DB" blush:i="0.0.0.0.0"/><path id="Path_2" d="M337.76 864.72C318.28 864.72 298.826 864.447 279.4 863.9C277.467 863.845 275.944 862.233 276 860.3C276.055 858.367 277.667 856.845 279.6 856.9C348.3 858.83 417.65 857.33 485.74 852.45C487.672 852.312 489.351 853.767 489.49 855.7C489.628 857.633 488.172 859.312 486.24 859.45C437.16 863 387.43 864.72 337.76 864.72Z" fill="#D1D9DB" blush:i="0.0.0.0.1"/><path id="Path_3" d="M335.5 1001.31H198.88C196.947 1001.31 195.38 999.743 195.38 997.81C195.38 995.877 196.947 994.31 198.88 994.31H335.5C337.433 994.31 339 995.877 339 997.81C339 999.743 337.433 1001.31 335.5 1001.31Z" fill="#D1D9DB" blush:i="0.0.0.0.2"/><path id="Shape" fill-rule="evenodd" clip-rule="evenodd" d="M165 844.34C171.734 845.95 178.636 846.752 185.56 846.73C209.659 846.73 233.503 837.748 256.821 828.965L257.55 828.69C286.05 817.84 315.53 806.62 344.35 812.69C346.233 813.068 348.069 811.858 348.464 809.979C348.86 808.099 347.666 806.252 345.79 805.84C314.96 799.35 284.51 810.93 255.06 822.13C224.69 833.7 195.92 844.58 166.69 837.58C160.755 836.218 155.096 833.851 149.96 830.58C155.373 828.536 160.308 825.401 164.46 821.37C174.78 810.92 174.25 796.4 167.85 788.92C163.797 784.415 157.895 782.028 151.85 782.45C144.791 782.705 138.217 786.106 133.93 791.72C127.07 801.23 127.72 815.84 135.49 826.47C135.74 826.8 136 827.14 136.26 827.47L136.259 827.47C135.4 827.68 134.54 827.89 133.68 828.08C101.03 835.554 67.3236 837.246 34.0898 833.08C32.1706 832.84 30.4201 834.201 30.1798 836.12C29.9396 838.039 31.3006 839.79 33.2198 840.03C67.2579 844.295 101.78 842.563 135.22 834.91C137.433 834.41 139.64 833.857 141.84 833.25C149.18 839.45 158.07 842.68 165 844.34ZM152.11 789.41H152.83C156.466 789.235 159.993 790.682 162.46 793.36C167.92 799.77 165.29 810.42 159.41 816.36C155.21 820.65 149.66 823.36 143.66 825.36C142.746 824.395 141.895 823.373 141.11 822.3C135.08 814.05 134.44 802.9 139.58 795.78C142.594 791.891 147.191 789.554 152.11 789.41Z" fill="#D1D9DB" blush:i="0.0.0.0.3"/><path id="Path_4" d="M954.18 702.5H857C855.067 702.5 853.5 700.933 853.5 699C853.5 697.067 855.067 695.5 857 695.5H954.18C956.113 695.5 957.68 697.067 957.68 699C957.68 700.933 956.113 702.5 954.18 702.5V702.5Z" fill="#D1D9DB" blush:i="0.0.0.0.4"/><path id="Path_5" d="M957 736.13C942.92 736.13 928.844 735.757 914.77 735.01C913.52 734.942 912.401 734.212 911.834 733.096C911.268 731.979 911.34 730.645 912.024 729.596C912.708 728.547 913.9 727.942 915.15 728.01C965.372 730.704 1015.74 728.537 1065.54 721.54C1066.78 721.361 1068.02 721.857 1068.79 722.84C1069.56 723.822 1069.76 725.143 1069.29 726.305C1068.83 727.466 1067.78 728.291 1066.54 728.47C1030.25 733.582 993.648 736.142 957 736.13Z" fill="#D1D9DB" blush:i="0.0.0.0.5"/><path id="Path_6" d="M631.099 960.34C629.166 960.37 627.575 958.828 627.544 956.895C627.514 954.962 629.056 953.37 630.989 953.34L1040.6 939.84C1042.53 939.777 1044.15 941.292 1044.21 943.225C1044.28 945.158 1042.76 946.777 1040.83 946.84L631.219 960.33L631.099 960.34Z" fill="#D1D9DB" blush:i="0.0.0.0.6"/><path id="Path_7" d="M762.73 1097.64C734.316 1097.64 705.983 1097.19 677.73 1096.29C676.479 1096.25 675.345 1095.55 674.754 1094.44C674.162 1093.34 674.204 1092.01 674.864 1090.94C675.523 1089.88 676.699 1089.25 677.95 1089.29C756.95 1091.81 837.01 1090.79 915.84 1086.29C917.773 1086.18 919.429 1087.66 919.54 1089.59C919.65 1091.52 918.173 1093.18 916.24 1093.29C865.35 1096.18 814 1097.64 762.73 1097.64Z" fill="#D1D9DB" blush:i="0.0.0.0.7"/><path id="Shape_2" fill-rule="evenodd" clip-rule="evenodd" d="M945.07 888.01C953.838 890.068 962.814 891.104 971.82 891.1C994.806 891.094 1017.3 884.474 1036.63 872.03C1037.34 872.64 1038.09 873.21 1038.86 873.75C1052.02 882.88 1069.35 882.24 1081.24 880.96C1087.12 880.323 1093.04 879.429 1098.77 878.563L1098.86 878.55L1098.86 878.55C1109.12 877 1119.71 875.4 1130.12 875.31C1148.35 875.09 1163.75 880.24 1173.48 889.66C1174.88 890.833 1176.95 890.727 1178.23 889.416C1179.51 888.106 1179.56 886.033 1178.35 884.66C1164.18 870.94 1144.24 868.17 1130.05 868.34C1119.15 868.43 1108.31 870.07 1097.81 871.66C1092.13 872.52 1086.25 873.41 1080.49 874.03C1069.72 875.19 1054.09 875.83 1042.85 868.03L1042.65 867.88C1043.35 867.36 1044.06 866.83 1044.75 866.29C1049.83 862.34 1056 856.84 1058.28 849.2C1060.56 841.56 1057.94 831.28 1049.56 827.98C1043.79 825.72 1036.64 827.6 1031.64 832.67C1027.08 837.33 1024.95 843.85 1025.64 851.03C1026.23 856.746 1028.34 862.199 1031.76 866.82C1006.86 882.4 975.18 887.92 946.68 881.2C944.822 880.81 942.992 881.973 942.556 883.82C942.119 885.668 943.234 887.526 945.07 888.01ZM1036.63 837.53C1038.65 835.382 1041.44 834.114 1044.39 834C1045.29 833.985 1046.19 834.145 1047.03 834.47C1051.48 836.22 1053.01 842.54 1051.61 847.12C1049.86 852.88 1044.74 857.42 1040.49 860.73C1039.55 861.46 1038.63 862.17 1037.63 862.87C1034.86 859.22 1033.13 854.886 1032.63 850.33C1032.26 846.73 1032.63 841.58 1036.63 837.53Z" fill="#D1D9DB" blush:i="0.0.0.0.8"/><path id="Path_8" d="M409.77 710.12C403.1 710.12 390.61 710.12 378.12 710.06C365.63 710 353.12 710 346.5 710C344.567 710 343 708.433 343 706.5C343 704.567 344.567 703 346.5 703C353.16 703 365.65 703 378.14 703.06C390.63 703.12 403.14 703.12 409.77 703.12C411.703 703.12 413.27 704.687 413.27 706.62C413.27 708.553 411.703 710.12 409.77 710.12Z" fill="#D1D9DB" blush:i="0.0.0.0.9"/><path id="Shape_3" fill-rule="evenodd" clip-rule="evenodd" d="M378.07 492C377.556 492 377.046 491.98 376.54 491.94C371.165 491.706 366.241 488.87 363.34 484.34C360.927 480.33 360.299 475.493 361.61 471C363.47 464.1 369.44 456.9 377.08 452.19C373.196 450.422 369.04 449.327 364.79 448.95C355.95 448.09 346.79 449.71 338.02 451.27L184.1 478.48C182.226 478.757 180.471 477.493 180.141 475.628C179.811 473.763 181.024 471.973 182.88 471.59L336.8 444.33L336.854 444.321C346.117 442.683 355.689 440.992 365.46 441.94C372.246 442.51 378.798 444.694 384.57 448.31C407.82 438.1 436.09 439.59 458.31 451.88C485.97 439.88 518 449.18 545.71 459.88L549.21 461.24L549.227 461.247C575.332 471.405 602.326 481.909 628.57 475.81C629.788 475.526 631.065 475.914 631.92 476.827C632.775 477.74 633.078 479.039 632.715 480.237C632.352 481.434 631.378 482.346 630.16 482.63C601.793 489.219 573.775 478.312 546.678 467.763L546.67 467.76L543.18 466.4C517.18 456.3 489.85 448.25 465.69 456.48C466.5 457.06 467.31 457.65 468.1 458.27C468.201 458.348 468.298 458.431 468.39 458.52C473.104 463.374 473.7 470.895 469.807 476.43C465.915 481.965 458.636 483.948 452.474 481.153C446.312 478.358 443.009 471.575 444.61 465C445.717 461.37 447.991 458.206 451.08 456C432.109 447.025 410.321 446.073 390.64 453.36C391.2 453.97 391.73 454.59 392.23 455.24C399.35 464.39 399.63 477.37 392.9 485.43C389.15 489.676 383.734 492.075 378.07 492ZM383.76 456.4L382.37 457.13C375.51 460.84 369.89 467.13 368.37 472.75C367.41 475.563 367.864 478.666 369.588 481.086C371.313 483.507 374.098 484.949 377.07 484.96C380.992 485.327 384.861 483.848 387.54 480.96C392.13 475.46 391.77 466.06 386.72 459.55C385.831 458.425 384.84 457.384 383.76 456.44V456.4ZM451.33 466.88C452.07 464.25 454.31 461.89 458 459.82C459.938 461.024 461.814 462.325 463.62 463.72C465.44 465.56 465.54 468.42 464.99 470.56C464.44 472.7 462.91 475.21 460.3 475.93C457.69 476.65 455.1 475.22 453.55 473.65C452 472.08 450.59 469.51 451.33 466.88Z" fill="#D1D9DB" blush:i="0.0.0.0.10"/><path id="Path_9" d="M818.16 802.93H778.16C776.227 802.93 774.66 801.363 774.66 799.43C774.66 797.497 776.227 795.93 778.16 795.93H818.16C820.093 795.93 821.66 797.497 821.66 799.43C821.66 801.363 820.093 802.93 818.16 802.93V802.93Z" fill="#D1D9DB" blush:i="0.0.0.0.11"/><path id="Path_10" d="M775 998.63C773.067 998.649 771.484 997.098 771.465 995.165C771.446 993.232 772.997 991.649 774.93 991.63L963.08 987.9H963.15C965.083 987.881 966.666 989.432 966.685 991.365C966.704 993.298 965.153 994.881 963.22 994.9L775.07 998.63H775Z" fill="#D1D9DB" blush:i="0.0.0.0.12"/><path id="Path_11" d="M676.2 607.13C672.186 607.147 668.184 606.708 664.27 605.82C662.386 605.384 661.213 603.503 661.65 601.62C662.086 599.737 663.966 598.564 665.85 599C681.17 602.53 696.41 597.32 712.54 591.81C719.34 589.49 726.36 587.09 733.39 585.41C769.88 576.67 807.39 587.07 840.56 596.25C841.819 596.533 842.82 597.486 843.164 598.73C843.509 599.974 843.141 601.306 842.208 602.197C841.274 603.088 839.926 603.393 838.7 602.99C806.38 593.99 769.7 583.9 735.02 592.22C728.31 593.82 721.45 596.17 714.81 598.44C702.24 602.73 689.34 607.13 676.2 607.13Z" fill="#D1D9DB" blush:i="0.0.0.0.13"/><path id="Path_12" d="M1119.75 1057.3H1119.69L1074.47 1056.54C1073.22 1056.52 1072.08 1055.83 1071.47 1054.74C1070.86 1053.64 1070.88 1052.31 1071.53 1051.24C1072.17 1050.17 1073.34 1049.52 1074.59 1049.54L1119.81 1050.29C1121.06 1050.3 1122.21 1050.98 1122.83 1052.07C1123.44 1053.15 1123.43 1054.49 1122.8 1055.57C1122.16 1056.64 1121 1057.3 1119.75 1057.29V1057.3Z" fill="#D1D9DB" blush:i="0.0.0.0.14"/><path id="Path_13" d="M226 906.72H36C34.067 906.72 32.5 905.153 32.5 903.22C32.5 901.287 34.067 899.72 36 899.72H226C227.933 899.72 229.5 901.287 229.5 903.22C229.5 905.153 227.933 906.72 226 906.72V906.72Z" fill="#D1D9DB" blush:i="0.0.0.0.15"/><path id="Path_14" d="M1091.59 1085.64H1091.4L1025.48 1082.12C1023.55 1082.02 1022.06 1080.37 1022.17 1078.44C1022.27 1076.5 1023.92 1075.02 1025.85 1075.12L1091.78 1078.64C1093.03 1078.67 1094.17 1079.37 1094.76 1080.47C1095.36 1081.57 1095.32 1082.91 1094.67 1083.97C1094.01 1085.04 1092.84 1085.67 1091.59 1085.64V1085.64Z" fill="#D1D9DB" blush:i="0.0.0.0.16"/></g></g></g><g id="Sign" blush:component="Sign" blush:defaultValue="Street Lamp" blush:width="580" blush:height="870" transform="translate(-54 320) scale(1 1)" blush:i="0.1" blush:value="Warning Light" blush:viewBox="100.58558558558559 247.94999999999993 195.94594594594588 604.6500000000001"><g id="Sign/Warning Light" blush:viewBox="100.58558558558559 247.94999999999993 195.94594594594588 604.6500000000001" blush:i="0.1.0"><g id="warning light" blush:i="0.1.0.0"><g id="signs" blush:i="0.1.0.0.0"><path id="Path" d="M197.521 821.53C194.003 821.53 191.151 818.678 191.151 815.16V815.16L189.531 384.08C189.525 382.703 188.408 381.59 187.031 381.59H167.611C166.949 381.587 166.313 381.848 165.844 382.316C165.374 382.783 165.111 383.418 165.111 384.08L163.491 815.17C163.485 818.686 160.637 821.534 157.121 821.54C147.836 821.551 140.312 829.075 140.301 838.36V841.18C140.306 846.054 144.256 850.004 149.131 850.01H205.511C210.385 850.004 214.335 846.054 214.341 841.18V838.36C214.335 829.071 206.81 821.541 197.521 821.53V821.53Z" fill="#A3B6B7" blush:i="0.1.0.0.0.0"/><path id="Path_2" d="M240.79 292.61V288.53C240.79 278.02 239.79 267.35 232.54 260.43C225.54 253.75 215.38 253 205.54 252.81L180.62 252.3C172.34 252.12 164.06 251.95 155.2 251.78C144.35 251.55 133.1 251.94 125.14 258.88C115.65 267.14 115.76 280.69 115.85 292.65C115.85 293.65 115.85 294.72 115.85 295.74C115.85 311.98 116.79 333.08 118.55 358.44L118.6 359.11C119.15 367.11 119.77 376.22 125.27 382.88C131.35 390.26 153.27 392.17 174.43 392.17C184.14 392.17 193.68 391.77 201.43 391.3C210.04 390.79 221.84 390.08 230.09 383.07C239.02 375.47 239.61 363.07 240.14 352.07C240.21 350.62 240.28 349.18 240.37 347.76C240.93 338.5 240.83 306.34 240.79 292.61Z" fill="#D2DCD0" blush:i="0.1.0.0.0.1"/><path id="Path_3" d="M151.001 384.79C149.744 384.79 148.682 383.857 148.521 382.61C143.35 342.202 142.853 301.332 147.041 260.81C147.182 259.429 148.416 258.424 149.796 258.565C151.177 258.706 152.182 259.939 152.041 261.32C147.898 301.47 148.391 341.963 153.511 382C153.596 382.658 153.416 383.322 153.011 383.847C152.606 384.373 152.009 384.715 151.351 384.8L151.001 384.79Z" fill="#1B1812" blush:i="0.1.0.0.0.2"/><path id="Path_4" d="M281.62 306.15C280.335 306.152 279.259 305.179 279.13 303.902C279.001 302.624 279.861 301.456 281.12 301.2L291.41 299.08C292.72 298.892 293.949 299.758 294.214 301.054C294.479 302.35 293.688 303.629 292.41 303.97L282.12 306.09C281.956 306.129 281.788 306.149 281.62 306.15Z" fill="#FA4A1B" blush:i="0.1.0.0.0.3"/><path id="Path_5" d="M292.34 346.87H291.92L280.78 344.97C279.419 344.735 278.505 343.441 278.74 342.08C278.975 340.718 280.269 339.805 281.63 340.04L292.76 341.94C294.141 342.056 295.166 343.269 295.05 344.65C294.934 346.03 293.721 347.056 292.34 346.94V346.87Z" fill="#FA4A1B" blush:i="0.1.0.0.0.4"/><path id="Path_6" d="M263.46 381.65C262.854 381.646 262.269 381.426 261.81 381.03L255.42 375.41C254.704 374.833 254.363 373.91 254.53 373.007C254.698 372.103 255.348 371.364 256.223 371.083C257.098 370.802 258.057 371.023 258.72 371.66L265.11 377.27C265.893 377.956 266.169 379.057 265.802 380.031C265.435 381.006 264.502 381.651 263.46 381.65V381.65Z" fill="#FA4A1B" blush:i="0.1.0.0.0.5"/><path id="Path_7" d="M216.24 295.28C220.46 304.9 221.7 315.57 221.77 326.07C221.83 334.7 221.07 343.56 217.45 351.4C213.83 359.24 206.89 365.96 198.38 367.4C188.3 369.14 178.07 363.12 172.25 354.71C166.43 346.3 164.25 335.92 163.07 325.71C161.75 314.4 161.58 302.51 166.22 292.11C170.44 282.65 180.9 273.21 191.95 273.53C203 273.85 212.1 285.86 216.24 295.28Z" fill="#FA4A1B" blush:i="0.1.0.0.0.6"/><path id="Shape" fill-rule="evenodd" clip-rule="evenodd" d="M170.19 356.15C175.29 363.52 184.59 370.22 194.85 370.22C196.174 370.224 197.495 370.113 198.8 369.89C207.42 368.45 215.43 361.72 219.72 352.45C223.85 343.51 224.32 333.64 224.27 326.05C224.18 313.1 222.36 303 218.53 294.28C213.93 283.81 204.31 271.42 192.03 271.1C179.75 270.78 168.39 281.16 163.93 291.16C158.72 302.83 159.41 315.95 160.59 326.07C161.65 335.15 163.69 346.77 170.19 356.15ZM168.5 293.2C172.23 284.83 181.48 276.09 191.4 276.09L191.88 276.1C201.12 276.37 209.62 286.43 213.95 296.29C217.5 304.37 219.19 313.84 219.27 326.08C219.31 333.16 218.89 342.35 215.18 350.35C211.57 358.15 204.95 363.75 197.95 364.96C188.3 366.62 179.15 360.31 174.3 353.31C168.43 344.84 166.55 333.99 165.55 325.49C164.45 316.01 163.79 303.76 168.5 293.2Z" fill="#1B1812" blush:i="0.1.0.0.0.7"/><path id="Path_8" d="M222.13 312.93L254.67 312.07C255.92 303.54 255 290.33 249.77 283.47C244.54 276.61 234.88 272.87 226.87 276.06C215.87 280.47 212.26 298.65 203.35 306.53C193.09 315.6 173.55 315.6 159.94 314.06C159.23 301.06 160.65 291.77 168.83 283.23C177.01 274.69 186.62 272.83 192.83 273.35C206.61 274.49 231.11 274.91 231.11 274.91" fill="#D2DCD0" blush:i="0.1.0.0.0.8"/><path id="Shape_2" fill-rule="evenodd" clip-rule="evenodd" d="M159.661 316.54C164.053 317.048 168.47 317.309 172.891 317.32C184.051 317.32 197.001 315.49 205.021 308.4C209.095 304.794 212.058 299.362 214.928 294.101L214.961 294.04L214.97 294.025C218.726 287.121 222.275 280.599 227.811 278.38C234.351 275.78 242.951 278.61 247.811 284.99C251.981 290.47 253.271 301.3 252.471 309.63L238.351 310L222.091 310.43C221.198 310.452 220.384 310.948 219.956 311.732C219.528 312.517 219.551 313.47 220.016 314.232C220.481 314.995 221.318 315.452 222.211 315.43L238.491 315L254.761 314.57C255.977 314.535 256.992 313.633 257.171 312.43C258.321 304.54 257.841 289.91 251.781 281.96C247.053 275.63 239.483 272.068 231.591 272.46C231.443 272.428 231.292 272.411 231.141 272.41C231.124 272.41 230.979 272.407 230.722 272.402C227.426 272.336 205.588 271.899 193.031 270.86C189.581 270.57 177.571 270.5 167.031 281.5C158.071 290.85 156.721 300.94 157.441 314.19C157.511 315.409 158.448 316.401 159.661 316.54ZM201.701 304.65C192.171 313.07 173.771 312.9 162.341 311.79C161.921 300.68 163.351 292.56 170.551 284.96C179.601 275.55 189.671 275.6 192.551 275.84C200.551 276.5 212.181 276.92 220.551 277.16C216.421 280.87 213.451 286.32 210.551 291.65L210.466 291.806C207.708 296.879 205.096 301.681 201.701 304.65Z" fill="#1B1812" blush:i="0.1.0.0.0.9"/><path id="Path_9" d="M247.41 851H107.23C105.85 851 104.73 849.881 104.73 848.5C104.73 847.119 105.85 846 107.23 846H247.41C248.791 846 249.91 847.119 249.91 848.5C249.91 849.881 248.791 851 247.41 851Z" fill="#1B1812" blush:i="0.1.0.0.0.10"/></g></g></g></g><g id="Master/Vehicles/Small Vehicle" blush:has-customizable-colors="true" blush:component="Master/Vehicles/Small Vehicle" blush:width="1560" blush:height="940" transform="translate(87 260) scale(1 1)" blush:i="0.2" blush:value="Small Vehicle" blush:viewBox="0 -2.3421926910298225 1559.9999999999995 944.68438538206"><g id="Master/Vehicles/Small Vehicle" blush:has-customizable-colors="true" blush:viewBox="0 -2.3421926910298225 1559.9999999999995 944.68438538206" blush:i="0.2.0"><g id="Small Vehicle" blush:component="Small Vehicle" blush:defaultValue="Motorcycle" blush:width="1560" blush:height="940" blush:i="0.2.0.0" blush:value="Folding Bicycle" transform="scale(1 1)" blush:viewBox="499.20000000000005 497.325581395349 468.0000000000004 413.7873754152822"><g id="Small Vehicle/Folding Bicycle" blush:viewBox="499.20000000000005 497.325581395349 468.0000000000004 413.7873754152822" blush:i="0.2.0.0.0"><g id="folding bicycle" blush:i="0.2.0.0.0.0"><g id="cars" blush:i="0.2.0.0.0.0.0"><path id="Path" d="M606.16 659.1C604.95 651.29 599.05 642.03 592.16 637.1C589.6 635.26 585.76 633.21 582.04 633.87C581.21 634.014 580.363 633.728 579.79 633.11C578.018 633.933 576.19 634.632 574.32 635.2L573.5 635.01C569.837 634.018 566.056 633.526 562.26 633.55C558.248 633.665 554.294 634.53 550.6 636.1C542.6 639.48 537.29 644.33 534.36 650.94C532.08 656.08 532.79 665.94 534.36 670C536.18 674.68 539.29 677.1 544.79 678.08C547.461 678.479 550.16 678.666 552.86 678.64C554.598 678.66 556.335 678.566 558.06 678.36C560.118 678.203 562.095 677.491 563.78 676.3C566.15 674.42 566.87 671.63 567.51 669.17C567.71 668.4 567.9 667.67 568.13 667.02C569.02 664.43 570.25 662.67 571.78 661.77C574.14 660.38 578.11 659.5 579.35 660.09C581.13 660.93 581.42 662.56 580.93 668.8C580.647 670.865 581.675 672.89 583.51 673.88C585.946 674.943 588.778 674.49 590.76 672.72C593.05 670.81 597.28 667.79 601.76 664.6C603.57 663.3 605.4 662 607.15 660.73C606.618 660.339 606.262 659.753 606.16 659.1V659.1Z" fill="#fbd2ae" blush:color="Skin-500" blush:i="0.2.0.0.0.0.0.0"/><path id="Path" d="M732.56 871.76C727.2 867.35 716.21 864.76 709.33 865.02C708.266 865.067 707.349 865.781 707.04 866.8L700.69 888C697.19 889.63 693.78 891.16 690.48 892.64C681.91 896.49 673.05 900.46 662.48 906.31C661.48 906.861 660.98 908.019 661.265 909.124C661.55 910.23 662.548 911.002 663.69 911H720.2C722.29 911 723.68 910.31 727.82 896.1C730.02 888.55 732.23 879.68 733.43 874.23C733.634 873.308 733.297 872.35 732.56 871.76V871.76Z" fill="#1B1812" blush:i="0.2.0.0.0.0.0.1"/><path id="Path_2" d="M711.07 789.39C706.75 786.56 700.79 786.39 693.82 788.87C686.7 791.42 681.39 792.78 677.59 793.04C676.751 793.113 676.003 793.596 675.59 794.33C675.184 795.075 675.184 795.975 675.59 796.72C678.484 802.094 680.58 807.861 681.81 813.84C670.697 820.556 658.979 826.214 646.81 830.74C645.679 831.165 645.014 832.339 645.23 833.527C645.446 834.716 646.481 835.58 647.69 835.58H704.69C705.71 835.574 706.624 834.949 707 834C708 831.4 709.25 828.69 710.48 826.06C711.71 823.43 713.07 820.55 714.12 817.78C715.73 813.53 717.55 808.71 717.68 803.63C717.79 797.6 715.27 792.16 711.07 789.39Z" fill="#1B1812" blush:i="0.2.0.0.0.0.0.2"/><path id="Path_3" d="M808.119 652.78C807.762 652.205 807.189 651.798 806.529 651.65L745.079 638.09C743.747 637.776 742.409 638.592 742.079 639.92L737.179 659.37C717.459 743.87 697.489 812.99 674.339 876.88C674.077 877.598 674.158 878.396 674.56 879.046C674.962 879.695 675.64 880.125 676.399 880.21C685.971 881.344 695.601 881.918 705.239 881.93C716.066 881.964 726.878 881.155 737.579 879.51C738.491 879.389 739.261 878.773 739.579 877.91C766.608 804.828 789.59 730.311 808.419 654.7C808.579 654.046 808.471 653.355 808.119 652.78Z" fill="#2A3640" blush:i="0.2.0.0.0.0.0.3"/><path id="Path_4" d="M751.78 642.21C749 639.33 745.2 637.96 741.5 636.9C730.85 633.84 715.92 631.96 705.27 640.38C703.815 641.574 702.433 642.852 701.13 644.21C699.437 646.084 697.488 647.71 695.34 649.04C691.96 650.88 687.62 651.04 683.78 651.27L655.63 652.62C643.78 653.19 630.49 654.62 622.69 663.89C618.64 668.73 616.4 675.54 616.24 683.57C616.01 694.51 619.34 705.15 623.08 715.99C634.24 748.38 648.68 780.34 661.41 808.53C661.815 809.425 662.707 810.001 663.69 810C663.941 810.003 664.19 809.965 664.43 809.89L705.22 797.31C708.22 796.39 711.6 795.31 714.37 793.03C717.71 790.25 718.37 784.69 717.12 781.14L692.12 712.04C690.05 706.29 688.36 699.88 691.6 695.92C694.07 692.92 698.81 692.2 703.46 691.75L741.46 688.06C747.65 687.46 751.69 679.33 753.14 675.86C755 671.42 755.48 666.54 755.91 662.24C756.59 655.33 756.9 647.5 751.78 642.21Z" fill="#2A3640" blush:i="0.2.0.0.0.0.0.4"/><path id="Path_5" d="M815.11 593.35C811.26 585.54 804.49 578.26 797.88 574.81C782.56 566.81 766.44 567.21 747.78 567.66C736.547 567.797 725.354 569.029 714.36 571.34C704.36 573.59 692.98 577.43 678.54 583.41C653.4 593.84 607.21 613.64 580.31 629.22C579.267 629.831 578.812 631.1 579.227 632.235C579.642 633.37 580.809 634.045 582 633.84C585.72 633.18 589.56 635.23 592.12 637.07C599.05 642.07 604.95 651.29 606.12 659.07C606.243 659.871 606.748 660.563 607.475 660.923C608.201 661.283 609.057 661.267 609.77 660.88C610.77 660.36 611.77 659.82 612.84 659.29V659.04C613.1 648.91 620.23 639.23 630.59 634.97C638.76 631.61 652.14 626.12 660.16 632.72C660.4 632.62 661.83 633.65 662.6 633.83C668.66 635.3 673.23 639.08 676.97 645.74C677.4 646.49 677.78 647.23 678.15 647.96C678.27 648.2 678.37 648.44 678.49 648.68C678.72 649.17 678.95 649.68 679.17 650.15L679.52 650.99C679.7 651.43 679.88 651.88 680.05 652.32L680.38 653.2C680.54 653.63 680.69 654.07 680.84 654.51C680.93 654.8 681.03 655.1 681.13 655.39C681.27 655.84 681.41 656.3 681.54 656.75C681.63 657.03 681.71 657.32 681.79 657.6C681.94 658.11 682.08 658.6 682.22 659.14C682.28 659.38 682.35 659.61 682.41 659.85C682.61 660.61 682.8 661.38 683 662.16V662.16C683.213 663 683.423 663.86 683.63 664.74C683.906 665.857 684.909 666.641 686.06 666.64C686.433 666.64 686.802 666.558 687.14 666.4C695.94 662.19 705.81 657.24 716.21 651.89C749.9 652.2 781.32 655.84 809.75 662.79C809.943 662.838 810.141 662.861 810.34 662.86C810.818 662.863 811.287 662.728 811.69 662.47C812.267 662.102 812.669 661.512 812.8 660.84C813.14 659.053 813.473 657.263 813.8 655.47C816.04 644.05 818.35 632.23 819.04 620.47C819.58 612.57 819.55 602.35 815.11 593.35Z" fill="#2679D5" blush:i="0.2.0.0.0.0.0.5"/><path id="Path_6" d="M553.33 676.91C552.209 676.912 551.225 676.168 550.92 675.09C548.85 667.76 549.09 657.09 556.58 650.95C557.654 650.131 559.185 650.313 560.037 651.362C560.888 652.411 560.752 653.947 559.73 654.83C552.35 660.83 555.36 672.43 555.73 673.73C555.911 674.366 555.832 675.049 555.509 675.627C555.187 676.205 554.647 676.631 554.01 676.81C553.789 676.877 553.56 676.91 553.33 676.91V676.91Z" fill="#1B1812" blush:i="0.2.0.0.0.0.0.6"/><path id="Path_7" d="M543.27 676.2C542.153 676.197 541.173 675.454 540.87 674.38C537.93 663.98 539.04 655.59 544.17 649.45C545.063 648.428 546.609 648.306 547.652 649.175C548.694 650.044 548.853 651.587 548.01 652.65C543.95 657.52 543.18 664.18 545.68 673.02C546.051 674.348 545.277 675.726 543.95 676.1C543.73 676.168 543.5 676.202 543.27 676.2Z" fill="#1B1812" blush:i="0.2.0.0.0.0.0.7"/><path id="Path" d="M803.91 521.33C802.113 519.998 799.979 519.194 797.75 519.01C796.81 518.89 795.86 518.82 794.9 518.78L794.99 518.34C795.44 516.05 796.37 511.28 793.21 508.21C791.39 506.45 788.97 506.04 786.85 505.79C775.71 504.445 764.449 504.445 753.31 505.79C750.18 506.19 746.65 506.96 744.12 509.67C741.36 512.67 740.36 516.67 739.48 520.23L739.08 521.82C737.388 528.218 736.052 534.704 735.08 541.25C734.51 545.1 734.35 549.44 737.35 552.46C739.81 554.93 743.19 555.26 746.45 555.4L775.06 556.57C775.7 556.57 776.41 556.62 777.15 556.62C779.679 556.751 782.191 556.131 784.37 554.84C788.29 552.25 789.27 547.25 789.86 544.26L790.01 543.49C797.264 544.219 804.059 539.832 806.38 532.92C807.68 529.19 807.39 524.19 803.91 521.33Z" fill="#fbd2ae" blush:color="Skin-500" blush:i="0.2.0.0.0.0.0.8"/><path id="Path_8" d="M758.489 545.7C756.266 545.704 754.077 545.154 752.119 544.1C750.945 543.422 750.525 541.931 751.174 540.74C751.822 539.548 753.302 539.092 754.509 539.71C756.649 540.876 759.193 541.041 761.465 540.16C763.736 539.279 765.505 537.443 766.299 535.14C766.6 534.273 767.352 533.64 768.258 533.492C769.164 533.343 770.078 533.704 770.639 534.43L771.259 535.22C772.102 536.312 771.906 537.88 770.819 538.73C770.549 538.939 770.239 539.092 769.909 539.18C768.384 541.745 766.048 543.73 763.269 544.82C761.744 545.406 760.123 545.704 758.489 545.7V545.7Z" fill="#1B1812" blush:i="0.2.0.0.0.0.0.9"/><path id="Path_9" d="M729.239 689.33C729.04 689.331 728.842 689.307 728.649 689.26C727.32 688.929 726.501 687.594 726.809 686.26C728.919 677.63 731.069 668.59 733.219 659.39C733.409 658.508 734.06 657.796 734.922 657.529C735.784 657.261 736.723 657.479 737.379 658.099C738.036 658.719 738.307 659.644 738.089 660.52C735.939 669.74 733.779 678.8 731.669 687.44C731.386 688.551 730.386 689.329 729.239 689.33Z" fill="#1B1812" blush:i="0.2.0.0.0.0.0.10"/><path id="Path_10" d="M724.469 652C723.316 652 722.313 651.212 722.04 650.092C721.767 648.972 722.296 647.81 723.319 647.28C749.669 633.68 776.519 619.02 798.089 607.28C798.874 606.851 799.827 606.873 800.59 607.338C801.354 607.803 801.811 608.64 801.79 609.533C801.769 610.427 801.274 611.241 800.489 611.67C778.889 623.45 752.009 638.13 725.609 651.75C725.255 651.924 724.864 652.009 724.469 652Z" fill="#2A3640" blush:i="0.2.0.0.0.0.0.11"/><path id="Path_11" d="M749.709 581.93C749.382 581.353 748.839 580.93 748.199 580.753C747.56 580.577 746.876 580.662 746.299 580.99C713.509 599.5 686.919 613.75 660.109 627.2C658.886 627.825 658.396 629.319 659.012 630.546C659.627 631.774 661.117 632.276 662.349 631.67L670.259 627.67C675.769 629.37 680.769 633.67 684.389 639.77C687.639 645.27 689.499 651.48 691.289 659.11C691.55 660.241 692.558 661.042 693.719 661.04C693.914 661.039 694.108 661.019 694.299 660.98C695.636 660.658 696.466 659.321 696.159 657.98C694.629 651.47 692.669 643.98 688.699 637.23C685.724 631.976 681.357 627.644 676.079 624.71C698.479 613.21 721.479 600.71 748.759 585.35C749.341 585.024 749.768 584.48 749.947 583.838C750.125 583.196 750.04 582.509 749.709 581.93Z" fill="#2A3640" blush:i="0.2.0.0.0.0.0.12"/><path id="Path" d="M676.999 645.77C673.259 639.11 668.689 635.33 662.629 633.86C661.859 633.68 660.429 632.65 660.189 632.75C652.189 626.15 638.789 631.64 630.619 635C620.259 639.26 613.129 648.94 612.869 659.07C612.719 665.33 615.309 672.26 621.459 673.63C626.879 674.84 632.459 676.09 638.239 676.09H639.389C646.569 675.87 652.859 673.47 657.069 669.31C657.869 668.53 658.589 667.69 659.289 666.88C660.749 665.18 662.129 663.58 663.829 662.94C665.689 662.24 667.979 662.67 670.409 663.13C671.259 663.29 672.149 663.46 673.039 663.58C676.433 663.85 679.846 663.38 683.039 662.2C681.579 656.3 680.149 651.34 676.999 645.77Z" fill="#fbd2ae" blush:color="Skin-500" blush:i="0.2.0.0.0.0.0.13"/><path id="Path_12" d="M636.8 676.61C635.881 676.613 635.035 676.109 634.6 675.3C632.012 670.535 631.721 664.855 633.81 659.851C635.899 654.848 640.142 651.06 645.35 649.55C646.218 649.267 647.171 649.479 647.837 650.104C648.502 650.73 648.774 651.668 648.545 652.552C648.317 653.436 647.625 654.125 646.74 654.35C642.986 655.441 639.927 658.173 638.422 661.781C636.916 665.388 637.125 669.484 638.99 672.92C639.649 674.132 639.202 675.65 637.99 676.31C637.623 676.505 637.215 676.608 636.8 676.61V676.61Z" fill="#1B1812" blush:i="0.2.0.0.0.0.0.14"/><path id="Path_13" d="M624.6 673.35C623.516 673.347 622.556 672.65 622.22 671.62C620.507 666.776 620.288 661.53 621.59 656.56C623.122 651.466 626.66 647.214 631.39 644.78C632.191 644.331 633.175 644.359 633.95 644.851C634.726 645.344 635.169 646.222 635.104 647.138C635.039 648.055 634.477 648.862 633.64 649.24C630.14 651.05 627.522 654.199 626.38 657.97C625.08 662.39 625.99 666.97 626.98 670.08C627.221 670.841 627.087 671.671 626.617 672.317C626.147 672.963 625.398 673.346 624.6 673.35V673.35Z" fill="#1B1812" blush:i="0.2.0.0.0.0.0.15"/><path id="Path_14" d="M615.319 649.26C609.559 633.16 598.569 625.04 590.419 624.32C589.038 624.196 587.818 625.214 587.694 626.595C587.57 627.976 588.588 629.196 589.969 629.32C599.349 630.15 607.969 642.26 611.389 653.24C611.669 654.152 612.446 654.824 613.389 654.97C613.8 652.996 614.448 651.078 615.319 649.26Z" fill="#2A3640" blush:i="0.2.0.0.0.0.0.16"/><path id="Path_15" d="M535.469 851.58C534.689 851.579 533.954 851.215 533.48 850.596C533.006 849.977 532.847 849.173 533.049 848.42C533.149 848.04 543.389 810.07 548.179 791.6C548.811 788.954 550.035 786.485 551.759 784.38C556.609 778.65 564.759 779 572.099 780.11C573.479 780.317 574.431 781.604 574.224 782.985C574.016 784.366 572.729 785.317 571.349 785.11C565.349 784.2 558.839 783.8 555.569 787.66C554.338 789.198 553.467 790.992 553.019 792.91C548.229 811.4 538.019 849.39 537.879 849.78C537.564 850.848 536.582 851.581 535.469 851.58Z" fill="#2679D5" blush:i="0.2.0.0.0.0.0.17"/><rect id="Rectangle" x="873.988" y="661.63" width="79.34" height="112.48" rx="2.5" fill="#68373E" blush:i="0.2.0.0.0.0.0.18"/><path id="Path_16" d="M941.148 679C939.768 679 938.648 677.881 938.648 676.5V664.9C938.648 663.519 939.768 662.4 941.148 662.4C942.529 662.4 943.648 663.519 943.648 664.9V676.5C943.648 677.881 942.529 679 941.148 679V679Z" fill="#1B1812" blush:i="0.2.0.0.0.0.0.19"/><path id="Path_17" d="M940.159 642.63C939.87 642.017 939.348 641.545 938.709 641.32C911.229 631.69 882.949 623.32 854.649 616.32C853.488 616.038 852.29 616.616 851.789 617.7C835.072 653.763 823.906 692.147 818.669 731.55V731.55C817.929 737.1 819.909 749.86 825.349 754.08C828.699 756.67 838.799 768.74 842.409 773.18C842.885 773.762 843.597 774.099 844.349 774.1H915.919C916.593 774.103 917.24 773.832 917.711 773.35C918.182 772.867 918.438 772.214 918.419 771.54C917.489 728.77 925.419 682.54 940.209 644.54C940.443 643.921 940.425 643.235 940.159 642.63V642.63Z" fill="#AC6040" blush:i="0.2.0.0.0.0.0.20"/><path id="Path_18" d="M897.199 714.51C897.083 714.52 896.966 714.52 896.849 714.51C895.483 714.319 894.529 713.057 894.719 711.69C898.203 686.933 905.183 662.796 915.449 640C916.074 638.868 917.458 638.399 918.642 638.918C919.826 639.438 920.419 640.774 920.009 642C909.938 664.363 903.089 688.043 899.669 712.33C899.513 713.575 898.454 714.51 897.199 714.51V714.51Z" fill="#8E4637" blush:i="0.2.0.0.0.0.0.21"/><path id="Path_19" d="M901.33 630C901.036 629.336 900.466 628.835 899.77 628.63C893.13 626.63 886.32 624.63 879.55 622.81C878.222 622.446 876.849 623.223 876.48 624.55L873.32 635.82C872.68 638.11 871.8 641.25 872.92 644.3C874.34 648.19 878.12 650.02 881.55 651.43V651.43C883.279 652.233 885.146 652.695 887.05 652.79C888.261 652.808 889.457 652.512 890.52 651.93C892.75 650.69 893.82 648.38 894.52 646.85L901.32 632.07C901.627 631.415 901.631 630.658 901.33 630Z" fill="#8E4637" blush:i="0.2.0.0.0.0.0.22"/><path id="Path_20" d="M886.32 672.48H803.9C797.233 698.247 790.076 723.943 782.43 749.57V771.57C782.43 772.951 783.549 774.07 784.93 774.07H886.32C887.7 774.07 888.82 772.951 888.82 771.57V675C888.825 674.333 888.564 673.692 888.095 673.219C887.625 672.746 886.986 672.48 886.32 672.48Z" fill="#D0A885" blush:i="0.2.0.0.0.0.0.23"/><path id="Path_21" d="M853.1 761.46C852.436 761.463 851.798 761.2 851.329 760.731C850.859 760.261 850.597 759.624 850.6 758.96V681.46C850.6 680.079 851.719 678.96 853.1 678.96C854.48 678.96 855.6 680.079 855.6 681.46V759C855.583 760.367 854.467 761.466 853.1 761.46V761.46Z" fill="#AC6040" blush:i="0.2.0.0.0.0.0.24"/><path id="Shape" fill-rule="evenodd" clip-rule="evenodd" d="M840.839 713.11H840.899L840.969 713.07C841.631 713.072 842.267 712.811 842.736 712.344C843.205 711.877 843.469 711.242 843.469 710.58V707.12C843.519 704.53 843.549 701.81 843.469 699.12C843.428 697.828 843.28 694.588 843.164 692.067C843.083 690.294 843.019 688.876 843.019 688.74C842.995 688.082 842.711 687.46 842.229 687.012C841.747 686.564 841.107 686.326 840.449 686.35C840.329 686.36 828.439 686.71 825.189 686.64L819.559 686.5L813.699 686.35C813.021 686.326 812.365 686.587 811.889 687.07C811.407 687.541 811.136 688.186 811.139 688.86V709.99C811.144 711.347 812.231 712.453 813.589 712.48L840.839 713.11ZM838.419 708.05L816.139 707.54L816.099 691.36L819.379 691.45L825.029 691.58C827.489 691.64 834.369 691.47 838.089 691.37C838.116 691.965 838.149 692.629 838.182 693.315C838.294 695.607 838.419 698.15 838.419 699.22C838.465 700.95 838.45 702.711 838.434 704.459C838.426 705.328 838.419 706.193 838.419 707.05V708.05Z" fill="#AC6040" blush:i="0.2.0.0.0.0.0.25"/><path id="Path_22" d="M831.53 699.25H822C820.619 699.25 819.5 698.131 819.5 696.75C819.5 695.369 820.619 694.25 822 694.25H831.49C832.871 694.25 833.99 695.369 833.99 696.75C833.99 698.131 832.871 699.25 831.49 699.25H831.53Z" fill="#AC6040" blush:i="0.2.0.0.0.0.0.26"/><path id="Path_23" d="M829.939 705.79H823.619C822.238 705.79 821.119 704.671 821.119 703.29C821.119 701.909 822.238 700.79 823.619 700.79H829.939C831.32 700.79 832.439 701.909 832.439 703.29C832.439 704.671 831.32 705.79 829.939 705.79V705.79Z" fill="#AC6040" blush:i="0.2.0.0.0.0.0.27"/><path id="Path_24" d="M655.369 852.62C644.529 852.62 630.449 844.24 624.729 836.36C619.599 829.36 616.879 821.25 614.249 813.47C612.339 807.79 610.529 802.47 607.869 797.53C601.179 785.16 586.999 772.53 572.869 772.44C570.108 772.415 567.889 770.156 567.914 767.395C567.939 764.633 570.198 762.415 572.959 762.44C591.819 762.62 608.849 778.29 616.689 792.77C619.749 798.42 621.779 804.45 623.749 810.27C626.249 817.67 628.609 824.66 632.839 830.48C637.369 836.72 649.209 842.94 655.909 842.6C658.671 842.456 661.026 844.578 661.169 847.34C661.313 850.101 659.191 852.456 656.429 852.6C656.069 852.61 655.719 852.62 655.369 852.62Z" fill="#2679D5" blush:i="0.2.0.0.0.0.0.28"/><path id="Path_25" d="M906.44 911H517.17C515.789 911 514.67 909.881 514.67 908.5C514.67 907.119 515.789 906 517.17 906H906.44C907.821 906 908.94 907.119 908.94 908.5C908.94 909.881 907.821 911 906.44 911Z" fill="#1B1812" blush:i="0.2.0.0.0.0.0.29"/><path id="Path_26" d="M575.56 756.05C575.33 756.049 575.102 756.019 574.88 755.96C573.552 755.586 572.778 754.208 573.15 752.88C582 721.19 593.69 664.59 593.81 664.03C593.941 663.111 594.572 662.34 595.447 662.029C596.322 661.718 597.297 661.917 597.98 662.547C598.662 663.177 598.939 664.133 598.7 665.03C598.59 665.6 586.86 722.36 577.96 754.21C577.666 755.294 576.683 756.048 575.56 756.05Z" fill="#1B1812" blush:i="0.2.0.0.0.0.0.30"/><path id="Shape_2" fill-rule="evenodd" clip-rule="evenodd" d="M799.719 788.24C803.083 788.095 806.45 788.432 809.719 789.24C829.739 794.07 843.079 815 842.929 841.27C842.689 884.85 818.599 909.23 794.929 910.85C794.159 910.93 793.369 910.93 792.579 910.93H790.739H789.129C773.189 910.94 754.089 899.9 749.529 868.18C748.815 862.744 748.65 857.249 749.039 851.78C754.339 836.86 759.472 821.86 764.439 806.78C768.599 801.224 773.841 796.567 779.849 793.09C785.883 789.634 792.771 787.953 799.719 788.24ZM763.629 866.06C766.629 887.92 778.839 901.38 794.629 900.32C813.119 899.09 831.939 878.62 832.159 841.92C832.299 816.83 819.459 802.57 806.679 799.57C792.609 796.22 778.849 805.21 769.849 823.57C764.559 834.39 761.819 853.06 763.629 866.06Z" fill="#1B1812" blush:i="0.2.0.0.0.0.0.31"/><path id="Shape_3" fill-rule="evenodd" clip-rule="evenodd" d="M777.139 799.31H773.939C772.558 799.31 771.439 800.429 771.439 801.81C771.439 803.191 772.558 804.31 773.939 804.31H777.139C778.52 804.31 779.639 803.191 779.639 801.81C779.639 800.429 778.52 799.31 777.139 799.31ZM768.839 809.5H772.049C773.43 809.5 774.549 808.381 774.549 807C774.549 805.619 773.43 804.5 772.049 804.5H768.839C767.458 804.5 766.339 805.619 766.339 807C766.339 808.381 767.458 809.5 768.839 809.5ZM762.529 812.57L761.269 816.32C761.739 817.006 762.517 817.417 763.349 817.42H766.559C767.94 817.42 769.059 816.301 769.059 814.92C769.059 813.539 767.94 812.42 766.559 812.42H763.349C763.069 812.423 762.792 812.474 762.529 812.57ZM764.169 825C764.169 826.381 763.05 827.5 761.669 827.5H758.459C758.148 827.5 757.839 827.442 757.549 827.33C757.732 826.794 757.916 826.258 758.1 825.723L758.1 825.722L758.101 825.722L758.101 825.722L758.101 825.722L758.101 825.721L758.101 825.72C758.47 824.646 758.839 823.573 759.199 822.5H761.669C763.05 822.5 764.169 823.619 764.169 825ZM758.569 875.92C759.95 875.92 761.069 877.039 761.069 878.42V878.46C761.047 879.825 759.934 880.92 758.569 880.92H755.369C753.988 880.92 752.869 879.801 752.869 878.42C752.869 877.039 753.988 875.92 755.369 875.92H758.569ZM768.359 890.5C768.359 889.119 767.24 888 765.859 888H762.649C761.268 888 760.149 889.119 760.149 890.5C760.149 891.881 761.268 893 762.649 893H765.859C767.224 893 768.337 891.905 768.359 890.54V890.5ZM772.329 900.38H775.539C776.92 900.38 778.039 901.499 778.039 902.88C778.039 904.261 776.92 905.38 775.539 905.38H772.329C770.948 905.38 769.829 904.261 769.829 902.88C769.829 901.499 770.948 900.38 772.329 900.38ZM772.82 895.619C773.289 896.089 773.552 896.726 773.549 897.39V897.43C773.527 898.795 772.414 899.89 771.049 899.89H767.839C766.458 899.89 765.339 898.771 765.339 897.39C765.339 896.009 766.458 894.89 767.839 894.89H771.049C771.713 894.887 772.35 895.15 772.82 895.619Z" fill="#3F3931" blush:i="0.2.0.0.0.0.0.32"/><path id="Path_27" d="M567.449 787.4C566.989 787.401 566.531 787.337 566.089 787.21C563.433 786.458 561.888 783.696 562.639 781.04C565.359 771.413 568.059 761.803 570.739 752.21C571.516 749.594 574.248 748.084 576.877 748.818C579.506 749.553 581.06 752.259 580.369 754.9C577.702 764.487 574.999 774.107 572.259 783.76C571.65 785.913 569.686 787.399 567.449 787.4Z" fill="#2679D5" blush:i="0.2.0.0.0.0.0.33"/><path id="Shape_4" fill-rule="evenodd" clip-rule="evenodd" d="M556.929 788.24C560.293 788.096 563.66 788.432 566.929 789.24C586.939 794.07 600.289 815 600.129 841.28C599.899 884.86 575.799 909.24 552.129 910.86C551.359 910.94 550.579 910.94 549.789 910.94H547.939H546.339C530.389 910.95 511.299 899.91 506.729 868.19C504.519 852.79 507.769 831.45 514.299 818.54C520.179 806.91 528.049 798.09 537.049 793.09C543.087 789.634 549.978 787.952 556.929 788.24ZM527.049 823.57C521.749 834.39 519.019 853.06 520.829 866.06L520.839 866.11C523.839 887.97 536.039 901.43 551.839 900.37C570.349 899.14 589.149 878.67 589.349 841.92C589.489 816.83 576.659 802.57 563.879 799.57C549.799 796.22 536.049 805.21 527.049 823.57Z" fill="#1B1812" blush:i="0.2.0.0.0.0.0.34"/><path id="Path_28" d="M529.249 901.93H526.049C524.668 901.93 523.549 900.811 523.549 899.43C523.549 898.049 524.668 896.93 526.049 896.93H529.249C530.63 896.93 531.749 898.049 531.749 899.43C531.749 900.811 530.63 901.93 529.249 901.93Z" fill="#3F3931" blush:i="0.2.0.0.0.0.0.35"/><path id="Path_29" d="M525.059 897H521.859C520.479 897 519.359 895.881 519.359 894.5C519.359 893.119 520.479 892 521.859 892H525.059C526.44 892 527.559 893.119 527.559 894.5C527.559 895.881 526.44 897 525.059 897V897Z" fill="#3F3931" blush:i="0.2.0.0.0.0.0.36"/><path id="Path_30" d="M518.778 888H515.568C514.188 888 513.068 886.881 513.068 885.5C513.068 884.119 514.188 883 515.568 883H518.778C520.159 883 521.278 884.119 521.278 885.5C521.278 886.881 520.159 888 518.778 888Z" fill="#3F3931" blush:i="0.2.0.0.0.0.0.37"/><path id="Path_31" d="M532.739 905.42H529.539C528.158 905.42 527.039 904.301 527.039 902.92C527.039 901.539 528.158 900.42 529.539 900.42H532.739C534.12 900.42 535.239 901.539 535.239 902.92C535.239 904.301 534.12 905.42 532.739 905.42Z" fill="#3F3931" blush:i="0.2.0.0.0.0.0.38"/><path id="Path_32" d="M529.249 810.54H526.049C524.668 810.54 523.549 809.421 523.549 808.04C523.549 806.659 524.668 805.54 526.049 805.54H529.249C530.63 805.54 531.749 806.659 531.749 808.04C531.749 809.421 530.63 810.54 529.249 810.54Z" fill="#3F3931" blush:i="0.2.0.0.0.0.0.39"/><path id="Path_33" d="M525.759 815.42H522.559C521.178 815.42 520.059 814.301 520.059 812.92C520.059 811.539 521.178 810.42 522.559 810.42H525.759C527.139 810.42 528.259 811.539 528.259 812.92C528.259 814.301 527.139 815.42 525.759 815.42Z" fill="#3F3931" blush:i="0.2.0.0.0.0.0.40"/><path id="Path_34" d="M520.87 824.5H517.67C516.289 824.5 515.17 823.381 515.17 822C515.17 820.619 516.289 819.5 517.67 819.5H520.87C522.251 819.5 523.37 820.619 523.37 822C523.37 823.381 522.251 824.5 520.87 824.5Z" fill="#3F3931" blush:i="0.2.0.0.0.0.0.41"/><path id="Path_35" d="M532.739 807H529.539C528.158 807 527.039 805.881 527.039 804.5C527.039 803.119 528.158 802 529.539 802H532.739C534.12 802 535.239 803.119 535.239 804.5C535.239 805.881 534.12 807 532.739 807Z" fill="#3F3931" blush:i="0.2.0.0.0.0.0.42"/><path id="Path_36" d="M562.6 851.58C562.345 851.579 562.092 851.539 561.85 851.46C560.532 851.043 559.799 849.639 560.21 848.32C560.33 847.95 571.94 811.08 576.55 793.21C576.68 792.69 576.84 792.21 577.01 791.63C577.46 790.15 577.88 788.76 577.5 787.85C576.77 786.09 573.83 785.43 571.35 785.06C569.969 784.853 569.018 783.566 569.225 782.185C569.432 780.804 570.719 779.853 572.1 780.06C574.53 780.43 580.21 781.29 582.1 785.88C583.17 788.46 582.39 791 581.77 793.04C581.63 793.5 581.48 793.96 581.37 794.41C576.73 812.41 565.08 849.41 564.96 849.78C564.653 850.832 563.696 851.562 562.6 851.58V851.58Z" fill="#2679D5" blush:i="0.2.0.0.0.0.0.43"/><path id="Path_37" d="M732.129 680.83L707.999 682.44C706.069 682.56 704.129 682.69 702.199 682.83H701.869C700.239 682.93 697.769 683.09 696.119 685.06C694.078 687.664 694.078 691.325 696.119 693.93C698.179 696.41 701.399 697.04 703.749 697.49L713.479 699.38C717.066 702.976 721.006 706.202 725.239 709.01C725.669 707.29 726.109 705.57 726.539 703.84C725.359 703.02 724.219 702.15 723.089 701.25L726.999 702.01C728.679 695.063 730.389 688.003 732.129 680.83Z" fill="#1B1812" blush:i="0.2.0.0.0.0.0.44"/><path id="Shape_5" fill-rule="evenodd" clip-rule="evenodd" d="M957.71 723.27C959.067 723.27 960.177 724.353 960.21 725.71C960.22 726 960.89 755.44 960.47 771.64C960.438 772.978 959.358 774.054 958.02 774.08C952.87 774.19 948.34 774.19 943.94 774.19H931.59C926.72 774.13 921.48 774.13 915.3 774.13H774.93C775.376 772.798 775.779 771.472 776.182 770.142C776.284 769.805 776.387 769.468 776.49 769.13H826.88C826.329 755.478 826.998 741.803 828.88 728.27H788.68L790.12 723.27H957.71ZM931.62 769.15C939.71 769.22 946.79 769.27 955.53 769.15C955.77 755.62 955.41 735.24 955.27 728.24H833.91C832.01 741.768 831.34 755.441 831.91 769.09H915.3C918.578 769.09 921.593 769.107 924.43 769.123C926.948 769.137 929.325 769.15 931.62 769.15Z" fill="#1B1812" blush:i="0.2.0.0.0.0.0.45"/><path id="Path_38" d="M810.11 847.87C809.54 845.16 807.78 836.92 788.55 833.37C781.29 832.02 769.76 830.26 757.15 828.5C752.01 843.533 746.71 858.487 741.25 873.36C767.46 870.8 793.25 867.75 799.52 865.72C806.82 863.36 811.67 855.19 810.11 847.87Z" fill="#2679D5" blush:i="0.2.0.0.0.0.0.46"/><path id="Path_39" d="M674.378 876.88C680.898 858.88 687.168 840.46 693.248 821.41H690.798C683.178 821.27 675.288 821.12 668.218 824.73V824.73C667.025 825.337 665.885 826.043 664.808 826.84C656 833.544 651.677 844.61 653.608 855.51C655.888 867.96 663.138 875.61 674.248 877.57C674.258 877.335 674.302 877.102 674.378 876.88Z" fill="#2679D5" blush:i="0.2.0.0.0.0.0.47"/><path id="Shape_6" fill-rule="evenodd" clip-rule="evenodd" d="M660.37 879.95C662.99 880.08 665.7 880.25 668.58 880.5C669.868 880.624 670.85 881.706 670.85 883V889.49C670.846 890.823 669.801 891.921 668.47 891.99C667.26 892.07 665.7 892.07 663.93 892.07H663.93C656.384 892.07 645.114 891.613 641.906 891.482C641.794 891.478 641.692 891.474 641.6 891.47C640.935 891.442 640.309 891.151 639.86 890.66C639.413 890.166 639.18 889.515 639.21 888.85C639.258 887.85 639.326 886.804 639.392 885.781C639.408 885.536 639.424 885.292 639.44 885.05C639.52 883.8 639.6 882.55 639.66 881.34C639.692 880.66 640.001 880.022 640.514 879.575C641.028 879.128 641.701 878.909 642.38 878.97C646.43 879.33 650.16 879.51 653.77 879.66C653.841 879.559 653.917 879.462 654 879.37C661.29 871.97 671.81 859.71 675.29 855.64C674.087 853.818 673.447 851.683 673.45 849.5C673.44 845.997 675.069 842.691 677.851 840.564C680.634 838.436 684.252 837.732 687.63 838.66C687.11 840.247 686.583 841.83 686.05 843.41C685.603 843.309 685.147 843.259 684.69 843.26C681.768 843.264 679.24 845.295 678.607 848.147C677.973 851 679.404 853.91 682.05 855.15C681.516 856.73 680.973 858.307 680.42 859.88C679.892 859.663 679.381 859.409 678.89 859.12C675.65 862.95 667.26 872.65 660.37 879.95ZM644.35 886.58C649.48 886.78 659.76 887.14 665.85 887.06V885.3C662.09 885.01 658.54 884.86 655.15 884.72L654.805 884.706C651.522 884.57 648.133 884.431 644.51 884.16C644.499 884.301 644.496 884.445 644.493 884.59C644.487 884.855 644.481 885.121 644.43 885.38C644.35 885.78 644.35 886.18 644.35 886.58Z" fill="#1B1812" blush:i="0.2.0.0.0.0.0.48"/><path id="Path_40" d="M779.198 844.31C778.978 844.31 767.038 843.05 752.528 841.87L750.818 846.75C765.818 847.95 778.448 849.26 778.678 849.29H778.938C780.319 849.362 781.497 848.301 781.568 846.92C781.64 845.539 780.579 844.362 779.198 844.29V844.31Z" fill="#1B1812" blush:i="0.2.0.0.0.0.0.49"/><path id="Path_41" d="M793.999 856.73C792.947 856.73 792.008 856.07 791.649 855.081C791.291 854.092 791.591 852.984 792.399 852.31L799.089 846.74C799.772 846.143 800.725 845.962 801.579 846.268C802.433 846.575 803.055 847.32 803.202 848.216C803.349 849.111 803 850.016 802.289 850.58L795.599 856.15C795.152 856.528 794.584 856.733 793.999 856.73V856.73Z" fill="#1B1812" blush:i="0.2.0.0.0.0.0.50"/><path id="Path_42" d="M674.17 659.53H666.91C665.1 659.53 660.76 665.17 659.3 666.87C658.6 667.68 657.88 668.52 657.08 669.3L656.83 669.53H674.17C676.932 669.53 679.17 667.291 679.17 664.53C679.17 661.768 676.932 659.53 674.17 659.53V659.53Z" fill="#1B1812" blush:i="0.2.0.0.0.0.0.51"/><path id="Path_43" d="M533.389 666.2C533.389 665.92 533.299 665.64 533.259 665.35L533.199 664.91C533.199 664.65 533.139 664.4 533.109 664.14L533.049 663.56L532.989 662.86C532.989 662.64 532.989 662.42 532.989 662.19C532.939 661.31 532.909 660.42 532.919 659.53H529.199C526.438 659.53 524.199 661.768 524.199 664.53C524.199 667.291 526.438 669.53 529.199 669.53H534.199C533.876 668.55 533.628 667.547 533.459 666.53L533.389 666.2Z" fill="#1B1812" blush:i="0.2.0.0.0.0.0.52"/><path id="Path_44" d="M613.939 666.1C613.839 665.82 613.749 665.52 613.659 665.23C613.659 665.1 613.589 664.97 613.549 664.84C613.509 664.71 613.429 664.33 613.369 664.07L613.249 663.53C613.249 663.31 613.179 663.1 613.149 662.88C613.119 662.66 613.079 662.43 613.049 662.21C612.948 661.42 612.891 660.626 612.879 659.83C611.759 660.224 610.816 661.004 610.219 662.03H582.219C581.504 660.796 580.296 659.927 578.899 659.64V659.64C578.569 659.575 578.235 659.542 577.899 659.54H577.729C575.599 659.861 573.558 660.613 571.729 661.75C571.419 661.939 571.128 662.156 570.859 662.4L570.789 662.46C570.655 662.575 570.528 662.699 570.409 662.83L570.299 662.95L569.969 663.34L569.829 663.52C569.739 663.65 569.639 663.78 569.549 663.92C569.49 664.003 569.436 664.09 569.389 664.18C569.309 664.31 569.219 664.44 569.149 664.58C569.08 664.693 569.016 664.81 568.959 664.93C568.889 665.05 568.829 665.18 568.769 665.31C568.709 665.44 568.619 665.63 568.549 665.8C568.496 665.9 568.45 666.004 568.409 666.11C568.289 666.4 568.179 666.69 568.079 667V667V667C567.859 667.65 567.679 668.36 567.479 669.11C567.479 669.24 567.409 669.37 567.379 669.5H577.919C579.694 669.489 581.331 668.538 582.219 667H610.219C611.107 668.538 612.743 669.489 614.519 669.5H615.629C614.969 668.521 614.435 667.462 614.039 666.35C614.001 666.268 613.967 666.185 613.939 666.1V666.1Z" fill="#1B1812" blush:i="0.2.0.0.0.0.0.53"/><path id="Path_45" d="M564.859 847.85C552.299 847.75 533.159 847.57 533.159 847.57V847.57H532.639C531.258 847.551 530.123 848.654 530.104 850.035C530.084 851.416 531.188 852.55 532.569 852.57V852.57C545.139 852.68 564.279 852.81 564.279 852.81V852.81H564.819C566.199 852.81 567.319 851.691 567.319 850.31C567.319 848.929 566.199 847.81 564.819 847.81L564.859 847.85Z" fill="#1B1812" blush:i="0.2.0.0.0.0.0.54"/></g></g></g></g><g id="Facial Hair" blush:component="Facial Hair" blush:defaultValue="None" blush:width="220" blush:height="200" transform="translate(661 406) scale(220 200)" blush:i="0.2.0.1" blush:value="None" blush:viewBox="1.75 1.75 0 0"><g id="Facial Hair/None" stroke="none" stroke-width="1" fill="none" fill-rule="evenodd" fill-opacity="0" blush:viewBox="1.75 1.75 0 0" blush:i="0.2.0.1.0"/></g><g id="Hair" blush:component="Hair" blush:defaultValue="Bun" blush:width="220" blush:height="200" transform="translate(655 413) scale(1 1)" blush:i="0.2.0.2" blush:value="Wavy" blush:viewBox="79.20000000000002 75.27472527472528 83.59999999999995 76.92307692307688"><g id="Hair/Wavy" blush:viewBox="79.20000000000002 75.27472527472528 83.59999999999995 76.92307692307688" blush:i="0.2.0.2.0"><g id="long" blush:i="0.2.0.2.0.0"><g id="hair" blush:i="0.2.0.2.0.0.0"><path id="Path" d="M162.11 129.45C158.5 124.93 157.41 119.02 156.25 112.76C155.25 107.33 154.25 101.76 151.42 96.76C150.224 94.6343 148.755 92.6743 147.05 90.93V90.93V90.93C137.97 80.93 124.99 78.21 112.47 76.25C107.4 75.46 101.95 74.85 96.5499 75.78C90.3999 76.84 85.1499 79.94 82.1499 84.27C78.4799 89.56 78.4299 96.78 82.0299 101.42C86.0299 106.59 92.8499 107.61 99.6199 107.94C101.09 108.01 102.92 108.04 104.98 108.04C114.83 108.04 130.19 107.32 139.68 106.79C140.43 106.79 141.18 106.89 141.92 106.98C144.149 107.164 146.283 107.968 148.08 109.3C151.56 112.16 151.85 117.16 150.61 120.85C149.077 125.296 145.653 128.833 141.26 130.51C139.026 131.341 136.631 131.649 134.26 131.41L134.1 132.19C133.52 135.19 132.54 140.19 128.62 142.77C126.437 144.062 123.923 144.681 121.39 144.55H120.3C120.66 145.01 121.04 145.46 121.45 145.89C124.839 149.386 129.501 151.359 134.37 151.36C135.227 151.361 136.083 151.298 136.93 151.17C138.029 150.993 138.875 150.106 139 149L139.68 144.66C144.419 146.802 149.451 148.224 154.61 148.88C155.493 148.993 156.37 148.628 156.911 147.921C157.453 147.215 157.578 146.274 157.24 145.45L152.94 135.01C155.743 134.918 158.51 134.347 161.12 133.32C161.853 133.024 162.402 132.398 162.599 131.632C162.797 130.867 162.619 130.053 162.12 129.44L162.11 129.45Z" fill="#796235" blush:color="Hair-500" blush:i="0.2.0.2.0.0.0.0"/></g></g></g></g><g id="Accessories" blush:component="Accessories" blush:defaultValue="None" blush:width="220" blush:height="200" transform="translate(661 406) scale(1 1)" blush:i="0.2.0.3" blush:value="Crown" blush:viewBox="94.59999999999997 52.19780219780219 54.999999999999986 52.74725274725272"><g id="Accessories/Crown" blush:viewBox="94.59999999999997 52.19780219780219 54.999999999999986 52.74725274725272" blush:i="0.2.0.3.0"><g id="crown" blush:i="0.2.0.3.0.0"><g id="hair" blush:i="0.2.0.3.0.0.0"><path id="Path" d="M144.43 73.28C143.648 72.826 142.682 72.826 141.9 73.28C139.98 74.44 137.71 75.53 135.51 76.59C134.26 77.19 132.99 77.8 131.75 78.44C130.805 73.2182 130.676 67.8812 131.37 62.62C131.506 61.5942 130.995 60.591 130.086 60.0966C129.177 59.6023 128.058 59.7189 127.27 60.39L114.19 71.47C114.07 70.89 113.95 70.31 113.83 69.75C113.367 67.8851 113.033 65.9907 112.83 64.08C112.755 63.0342 112.036 62.1461 111.029 61.8558C110.021 61.5654 108.94 61.9344 108.32 62.78C102 71.41 97.7601 81.41 95.3201 88.27C94.9024 89.3807 95.3195 90.6321 96.3201 91.27C108.961 99.3654 123.61 103.774 138.62 104V104C139.731 104 140.709 103.267 141.02 102.2C144.08 91.79 145.55 83.3 145.65 75.48C145.671 74.58 145.205 73.7389 144.43 73.28V73.28Z" fill="#F9B735" blush:i="0.2.0.3.0.0.0.0"/><path id="Path_2" d="M113 60.76C112.386 60.7613 111.794 60.533 111.34 60.12C110.312 59.2008 110.219 57.6246 111.13 56.59L111.87 55.77C112.787 54.7373 114.367 54.6432 115.4 55.56C116.433 56.4768 116.527 58.0573 115.61 59.09L114.87 59.92C114.396 60.4555 113.715 60.7615 113 60.76V60.76Z" fill="#F9B735" blush:i="0.2.0.3.0.0.0.1"/><path id="Path_3" d="M131.36 59C130.466 58.9967 129.642 58.5167 129.199 57.741C128.755 56.9653 128.76 56.0118 129.21 55.24L129.91 54.03C130.36 53.2583 131.188 52.7854 132.081 52.7894C132.974 52.7934 133.798 53.2737 134.241 54.0494C134.684 54.8251 134.68 55.7783 134.23 56.55L133.53 57.76C133.078 58.5297 132.252 59.0018 131.36 59Z" fill="#F9B735" blush:i="0.2.0.3.0.0.0.2"/><path id="Path_4" d="M145.61 71.7C145.038 71.7018 144.483 71.5037 144.04 71.14C143.524 70.7245 143.195 70.1206 143.126 69.4619C143.057 68.8032 143.252 68.1439 143.67 67.63L144.15 67.05C144.697 66.3131 145.605 65.9367 146.513 66.0706C147.421 66.2044 148.182 66.8268 148.493 67.6902C148.804 68.5536 148.614 69.518 148 70.2L147.54 70.78C147.066 71.3591 146.359 71.6964 145.61 71.7Z" fill="#F9B735" blush:i="0.2.0.3.0.0.0.3"/></g></g></g></g></g></g></g></svg>